<?xml version="1.0" encoding="UTF-8" standalone="no"?>
<!DOCTYPE svg PUBLIC "-//W3C//DTD SVG 1.1//EN"
 "http://www.w3.org/Graphics/SVG/1.1/DTD/svg11.dtd">
<!-- Generated by graphviz version 2.40.1 (20161225.0304)
 -->
<!-- Title: dependencies Pages: 1 -->
<svg width="825pt" height="284pt"
 viewBox="0.00 0.00 825.00 284.00" xmlns="http://www.w3.org/2000/svg" xmlns:xlink="http://www.w3.org/1999/xlink">
<g id="graph0" class="graph" transform="scale(1 1) rotate(0) translate(4 280)">
<title>dependencies</title>
<polygon fill="#ffffff" stroke="transparent" points="-4,4 -4,-280 821,-280 821,4 -4,4"/>
<text text-anchor="start" x="387.5091" y="-42.4" font-family="sans-serif" font-weight="bold" font-size="14.00" fill="#000000">Legend</text>
<polygon fill="#ffffb3" stroke="transparent" points="174.5,-10 174.5,-30 194.5,-30 194.5,-10 174.5,-10"/>
<text text-anchor="start" x="198.129" y="-15.4" font-family="sans-serif" font-size="14.00" fill="#000000"> &#160;Declarations</text>
<polygon fill="#8dd3c7" stroke="transparent" points="287.5,-10 287.5,-30 307.5,-30 307.5,-10 287.5,-10"/>
<text text-anchor="start" x="311.2251" y="-15.4" font-family="sans-serif" font-size="14.00" fill="#000000"> &#160;Module</text>
<polygon fill="#80b1d3" stroke="transparent" points="373.5,-10 373.5,-30 393.5,-30 393.5,-10 373.5,-10"/>
<text text-anchor="start" x="397.2812" y="-15.4" font-family="sans-serif" font-size="14.00" fill="#000000"> &#160;Bootstrap</text>
<polygon fill="#fdb462" stroke="transparent" points="470.5,-10 470.5,-30 490.5,-30 490.5,-10 470.5,-10"/>
<text text-anchor="start" x="494.1732" y="-15.4" font-family="sans-serif" font-size="14.00" fill="#000000"> &#160;Providers</text>
<polygon fill="#fb8072" stroke="transparent" points="566.5,-10 566.5,-30 586.5,-30 586.5,-10 566.5,-10"/>
<text text-anchor="start" x="590.2258" y="-15.4" font-family="sans-serif" font-size="14.00" fill="#000000"> &#160;Exports</text>
<g id="clust1" class="cluster">
<title>cluster_AppModule</title>
<polygon fill="none" stroke="#000000" stroke-dasharray="1,5" points="8,-70 8,-268 809,-268 809,-70 8,-70"/>
</g>
<g id="clust2" class="cluster">
<title>cluster_AppModule_declarations</title>
<polygon fill="none" stroke="#000000" points="276,-78 276,-130 801,-130 801,-78 276,-78"/>
</g>
<g id="clust7" class="cluster">
<title>cluster_AppModule_imports</title>
<polygon fill="none" stroke="#000000" points="16,-78 16,-130 268,-130 268,-78 16,-78"/>
</g>
<g id="clust9" class="cluster">
<title>cluster_AppModule_bootstrap</title>
<polygon fill="none" stroke="#000000" points="354,-208 354,-260 478,-260 478,-208 354,-208"/>
</g>
<!-- AppComponent -->
<g id="node1" class="node">
<title>AppComponent</title>
<polygon fill="#ffffb3" stroke="#000000" points="792.9399,-122 687.0601,-122 687.0601,-86 792.9399,-86 792.9399,-122"/>
<text text-anchor="middle" x="740" y="-99.8" font-family="Times,serif" font-size="14.00" fill="#000000">AppComponent</text>
</g>
<!-- AppModule -->
<g id="node5" class="node">
<title>AppModule</title>
<polygon fill="#8dd3c7" stroke="#000000" points="457.6571,-187 454.6571,-191 433.6571,-191 430.6571,-187 374.3429,-187 374.3429,-151 457.6571,-151 457.6571,-187"/>
<text text-anchor="middle" x="416" y="-164.8" font-family="Times,serif" font-size="14.00" fill="#000000">AppModule</text>
</g>
<!-- AppComponent&#45;&gt;AppModule -->
<g id="edge1" class="edge">
<title>AppComponent&#45;&gt;AppModule</title>
<path fill="none" stroke="#000000" d="M740,-122.2843C740,-143.3211 740,-175 740,-175 740,-175 467.694,-175 467.694,-175"/>
<polygon fill="#000000" stroke="#000000" points="467.6941,-171.5001 457.694,-175 467.694,-178.5001 467.6941,-171.5001"/>
</g>
<!-- ChatComponent -->
<g id="node2" class="node">
<title>ChatComponent</title>
<polygon fill="#ffffb3" stroke="#000000" points="668.7744,-122 561.2256,-122 561.2256,-86 668.7744,-86 668.7744,-122"/>
<text text-anchor="middle" x="615" y="-99.8" font-family="Times,serif" font-size="14.00" fill="#000000">ChatComponent</text>
</g>
<!-- ChatComponent&#45;&gt;AppModule -->
<g id="edge2" class="edge">
<title>ChatComponent&#45;&gt;AppModule</title>
<path fill="none" stroke="#000000" d="M615,-122.0225C615,-139.3734 615,-163 615,-163 615,-163 467.7169,-163 467.7169,-163"/>
<polygon fill="#000000" stroke="#000000" points="467.717,-159.5001 457.7169,-163 467.7169,-166.5001 467.717,-159.5001"/>
</g>
<!-- LoginComponent -->
<g id="node3" class="node">
<title>LoginComponent</title>
<polygon fill="#ffffb3" stroke="#000000" points="543.2758,-122 428.7242,-122 428.7242,-86 543.2758,-86 543.2758,-122"/>
<text text-anchor="middle" x="486" y="-99.8" font-family="Times,serif" font-size="14.00" fill="#000000">LoginComponent</text>
</g>
<!-- LoginComponent&#45;&gt;AppModule -->
<g id="edge3" class="edge">
<title>LoginComponent&#45;&gt;AppModule</title>
<path fill="none" stroke="#000000" d="M443.2202,-122.1061C443.2202,-122.1061 443.2202,-140.991 443.2202,-140.991"/>
<polygon fill="#000000" stroke="#000000" points="439.7203,-140.9909 443.2202,-150.991 446.7203,-140.991 439.7203,-140.9909"/>
</g>
<!-- SettingsComponent -->
<g id="node4" class="node">
<title>SettingsComponent</title>
<polygon fill="#ffffb3" stroke="#000000" points="410.4468,-122 283.5532,-122 283.5532,-86 410.4468,-86 410.4468,-122"/>
<text text-anchor="middle" x="347" y="-99.8" font-family="Times,serif" font-size="14.00" fill="#000000">SettingsComponent</text>
</g>
<!-- SettingsComponent&#45;&gt;AppModule -->
<g id="edge4" class="edge">
<title>SettingsComponent&#45;&gt;AppModule</title>
<path fill="none" stroke="#000000" d="M392.1974,-122.1061C392.1974,-122.1061 392.1974,-140.991 392.1974,-140.991"/>
<polygon fill="#000000" stroke="#000000" points="388.6975,-140.9909 392.1974,-150.991 395.6975,-140.991 388.6975,-140.9909"/>
</g>
<!-- AppComponent  -->
<g id="node8" class="node">
<title>AppComponent </title>
<polygon fill="#80b1d3" stroke="#000000" points="470.439,-252 361.561,-252 361.561,-216 470.439,-216 470.439,-252"/>
<text text-anchor="middle" x="416" y="-229.8" font-family="Times,serif" font-size="14.00" fill="#000000">AppComponent </text>
</g>
<!-- AppModule&#45;&gt;AppComponent  -->
<g id="edge7" class="edge">
<title>AppModule&#45;&gt;AppComponent </title>
<path fill="none" stroke="#000000" stroke-dasharray="1,5" d="M416,-187.1061C416,-187.1061 416,-205.991 416,-205.991"/>
<polygon fill="#000000" stroke="#000000" points="412.5001,-205.9909 416,-215.991 419.5001,-205.991 412.5001,-205.9909"/>
</g>
<!-- AppRoutingModule -->
<g id="node6" class="node">
<title>AppRoutingModule</title>
<polygon fill="#8dd3c7" stroke="#000000" points="260.2744,-122 257.2744,-126 236.2744,-126 233.2744,-122 131.7256,-122 131.7256,-86 260.2744,-86 260.2744,-122"/>
<text text-anchor="middle" x="196" y="-99.8" font-family="Times,serif" font-size="14.00" fill="#000000">AppRoutingModule</text>
</g>
<!-- AppRoutingModule&#45;&gt;AppModule -->
<g id="edge5" class="edge">
<title>AppRoutingModule&#45;&gt;AppModule</title>
<path fill="none" stroke="#000000" d="M196,-122.0225C196,-139.3734 196,-163 196,-163 196,-163 364.1018,-163 364.1018,-163"/>
<polygon fill="#000000" stroke="#000000" points="364.1019,-166.5001 374.1018,-163 364.1018,-159.5001 364.1019,-166.5001"/>
</g>
<!-- EmbedVideo -->
<g id="node7" class="node">
<title>EmbedVideo</title>
<polygon fill="#8dd3c7" stroke="#000000" points="113.8697,-122 110.8697,-126 89.8697,-126 86.8697,-122 24.1303,-122 24.1303,-86 113.8697,-86 113.8697,-122"/>
<text text-anchor="middle" x="69" y="-99.8" font-family="Times,serif" font-size="14.00" fill="#000000">EmbedVideo</text>
</g>
<!-- EmbedVideo&#45;&gt;AppModule -->
<g id="edge6" class="edge">
<title>EmbedVideo&#45;&gt;AppModule</title>
<path fill="none" stroke="#000000" d="M69,-122.2843C69,-143.3211 69,-175 69,-175 69,-175 364.1437,-175 364.1437,-175"/>
<polygon fill="#000000" stroke="#000000" points="364.1437,-178.5001 374.1437,-175 364.1437,-171.5001 364.1437,-178.5001"/>
</g>
</g>
</svg>
